<?xml version="1.0" encoding="UTF-8"?>
<svg id="Layer_1" xmlns="http://www.w3.org/2000/svg" version="1.1" viewBox="0 0 168.75 168.75">
  <!-- Generator: Adobe Illustrator 29.5.0, SVG Export Plug-In . SVG Version: 2.1.0 Build 137)  -->
  <defs>
    <style>
      .st0 {
        fill: #f7e60d;
      }

      .st1 {
        fill: #f5d2ce;
      }

      .st2 {
        fill: #f3f9fc;
      }

      .st3 {
        fill: #efd912;
      }

      .st4 {
        fill: #e4cc1e;
      }

      .st5 {
        fill: #f18599;
      }

      .st6 {
        fill: #da1848;
      }

      .st7 {
        fill: #f0983d;
      }

      .st8 {
        fill: #f4cfcc;
      }

      .st9 {
        fill: #f4bbc1;
      }

      .st10 {
        fill: #008fd8;
      }

      .st11 {
        fill: #0097dc;
      }

      .st12 {
        fill: #b91d3e;
      }

      .st13 {
        fill: #c82147;
      }

      .st14 {
        fill: #a21c38;
      }

      .st15 {
        fill: #da001c;
      }

      .st16 {
        fill: #d91947;
      }

      .st17 {
        fill: #e6cf19;
      }

      .st18 {
        fill: #8e152c;
      }

      .st19 {
        fill: #f38300;
      }

      .st20 {
        fill: #fef500;
      }

      .st21 {
        fill: #edead3;
      }

      .st22 {
        fill: #e3c91b;
      }

      .st23 {
        fill: #a21b38;
      }

      .st24 {
        fill: #fbee06;
      }

      .st25 {
        fill: #a11b38;
      }

      .st26 {
        fill: #ed6884;
      }

      .st27 {
        fill: #f8db74;
      }

      .st28 {
        fill: #f38100;
      }

      .st29 {
        fill: #fbec05;
      }

      .st30 {
        fill: #dd8024;
      }

      .st31 {
        fill: #e31a4a;
      }

      .st32 {
        fill: #dab524;
      }

      .st33 {
        fill: #e11c49;
      }

      .st34 {
        fill: #e1204d;
      }

      .st35 {
        fill: #0096dd;
      }

      .st36 {
        fill: #ba1c3f;
      }

      .st37 {
        fill: #fdf7eb;
      }

      .st38 {
        fill: #edd611;
      }

      .st39 {
        fill: #ae173a;
      }

      .st40 {
        fill: #fefc00;
      }

      .st41 {
        fill: #841228;
      }

      .st42 {
        fill: #f07e93;
      }

      .st43 {
        fill: #e61c4c;
      }

      .st44 {
        fill: #00a4ea;
      }

      .st45 {
        fill: #d31845;
      }

      .st46 {
        fill: #e57d00;
      }

      .st47 {
        fill: #f5cbca;
      }

      .st48 {
        fill: #efd810;
      }

      .st49 {
        fill: #ac1739;
      }

      .st50 {
        fill: #0086cf;
      }

      .st51 {
        fill: #dfc11f;
      }

      .st52 {
        fill: #a41d38;
      }

      .st53 {
        fill: #b52344;
      }

      .st54 {
        fill: #c41941;
      }

      .st55 {
        fill: #f28f20;
      }

      .st56 {
        fill: #dab621;
      }

      .st57 {
        fill: #e30038;
      }

      .st58 {
        fill: #a31d39;
      }

      .st59 {
        fill: #f28b11;
      }

      .st60 {
        fill: #e01a49;
      }

      .st61 {
        fill: #fbf0e5;
      }

      .st62 {
        fill: #e11a4a;
      }

      .st63 {
        fill: #dc7915;
      }

      .st64 {
        fill: #f3d917;
      }

      .st65 {
        fill: #e3003f;
      }

      .st66 {
        fill: #b91b3f;
      }

      .st67 {
        fill: #f1901b;
      }

      .st68 {
        display: none;
        fill: #fefefe;
      }

      .st69 {
        fill: #e68313;
      }

      .st70 {
        fill: #13a7e8;
      }

      .st71 {
        fill: #e46581;
      }

      .st72 {
        fill: #770f1f;
      }

      .st73 {
        fill: #f2a4b0;
      }

      .st74 {
        fill: #f19227;
      }

      .st75 {
        fill: #11a7e9;
      }

      .st76 {
        fill: #0d8cd2;
      }

      .st77 {
        fill: #109bdd;
      }

      .st78 {
        fill: #8c122c;
      }

      .st79 {
        fill: #d41845;
      }

      .st80 {
        fill: #e71b4b;
      }

      .st81 {
        fill: #f8ea08;
      }

      .st82 {
        fill: #eee3d7;
      }

      .st83 {
        fill: #eed810;
      }

      .st84 {
        fill: #fef8ed;
      }

      .st85 {
        fill: #d91a46;
      }

      .st86 {
        fill: #dab921;
      }

      .st87 {
        fill: #fcef09;
      }

      .st88 {
        fill: #e5ce21;
      }

      .st89 {
        fill: #00931e;
      }

      .st90 {
        fill: #c61741;
      }

      .st91 {
        fill: #e71b4c;
      }

      .st92 {
        fill: #f28500;
      }

      .st93 {
        fill: #d9b522;
      }

      .st94 {
        fill: #c61940;
      }

      .st95 {
        fill: #f294a4;
      }

      .st96 {
        fill: #aa1839;
      }
    </style>
  </defs>
  <path class="st68" d="M114.99,0c.25,0,.5,0,.75,0C133.39.03,151.09-.01,168.75,0v168.75H0V0h114.99ZM130.66,16.5v-1.49h-.73v1.49h.73ZM105.28,15.76h-1.49v.73h1.49v-.73ZM154.56,20.26c-.67-.68-2.19.1-2.82,1.29-1.61,3.05-.63,8.77-.91,12.2,3.56-.1,1.93-5.15,2.3-7.81.17-1.23,1.98-5.13,1.43-5.68ZM99.68,21.75v.75c.48-.25.48-.5,0-.75ZM99.31,24.75c0,.97.75.97.75,0s-.75-.97-.75,0ZM85.86,48c.59-3.25,2.84-6.31,3.88-9.25.86-2.41-1.5-2.79-3.03-.77-.53.69-1.98,3.72-2.17,4.57-.2.91-.75,7.44,1.31,5.45ZM116.48,43.5c-1.84.83-3.33-.27-5.22,0,1.25,3.2,1.81,4.77.75,8.24,1.13.61,2.74-.75,2.98-.75.3,0,2.47,1.17,2.99,1.5.29.18.56,1.24,1.12,1.48,2.01-1.71.03-5.13,3.35-5.27.37-.46-2.56-3.58-2.98-4.47-.2-.42.15-1.61,0-2.25-1.93-.79-2.65,1.35-2.98,1.5ZM82.89,63.75c3.91-2.58,4.97-7.56,4.47-12-1.49.27-1.19,1.62-1.51,2.6-1,3.12-1.69,6.35-2.96,9.4ZM150.08,61.5c-.11-.23.22-.93-.15-1.32-.77-.79-5.23-2.04-6.56-1.68-.13,1.09,1.42,1.02,2.24,1.49.19.11.58-.11.75,0,.32.21.51.59.75.75v2.25c.47.11,1.13-.12,1.49,0,.2.07.49-.04.75,0,.39.07.93.74,1.49.75l.74-1.88-.73-.37h-.75ZM163.52,72.75c.31-5.06-4.13-9.31-8.96-9.74,3.56,3.22,5.14,3.59,7.27,8.1.49,1.03-.46,2.06,1.69,1.64ZM71.67,66.75v-1.49h-.73v1.49h.73ZM70.93,69l1.48,1.5.75-2.62-.74-.38-1.49,1.5ZM123.2,72c.08-.06.7-1.79.7-1.89-.06-2.18-8.71-1.44-10.4-1.11.57,1.26,9.31,3.32,9.71,2.99ZM59.73,78.75c-.02.15-.61.46-.75.75v.75h-.75c-1.52.4-1.14,1.81-1.49,2.25-.54.66-2.05-1.53-.75,2.25.08.23-.09.56,0,.75-1.19.41-1.58,1.35-2.24,2.25-.19.26-.54.46-.75.75-.12.17.11.57,0,.75-.16.25-.57.45-.75.75-.43.73-1.23,1.54-1.49,2.25-.08.22.06.52,0,.75v.75c-.16.1-.51-.09-.75,0l-.73.37c0,.15.73.29.73.38-.02.25.02.5,0,.75l-1.49,2.25h-.75l-.75,1.5c-.09.41-.1,1.89,0,2.25-1.8.52-1.67,1.84-2.24,3-.12.24-.57.46-.75.75v.75c-1.45,2.12-2.34,4.5-4.48,6v.75c-.39.11-.52.48-.75.75-1.88,2.23-1.56,4.17-2.24,6-.11.3-.56,1.18-.75,1.5-.11.19.12.65,0,.75-.14.12-.54-.11-.75,0-.28.15-.87-.42-1.55.47-.4.52-5.79,10.89-6.09,11.73-.42,1.2-.77,2.24-.57,3.54,1.54,1.53,11.57-4.22,13.71-5.37,1.09-.59,1.79-2.04,1.97-2.13,1.37-.71,3.11-1.53,4.48-2.25,4.35-2.28,9.19-4.51,13.44-6.75,1.5-.79,2.83-1.78,3.73-2.25,4.66-2.44,9.56-5.08,14.19-7.5,1.38-.72,5.04-.44,5.97-3,4.78-.78,3.89-2.15,5.23-3,.72-.46,3.72.08,4.39-2.01.41-2.53-.63-4.71-1.4-6.99-.09-.26-.64-.5-.75-.75-1.78-4.06-.91-2.02-2.99-4.5-1.32-1.57-.74-2.2-3.73-5.25-1.53-1.56-2.85-3-4.48-4.5-3.85-3.54-2.98-3.04-7.47-6-1.24-.82-1.89-2.58-4.34-3.52-1.6-.62-4.77-1.41-6.36-.87-3.04,2.07-2.31,5.35-2.74,8.14ZM112.75,93c-5.69-1.37-10.71-4.79-17.17-2.99.98,2.33,4.1,1.25,6.16,1.68,3.43.73,6.93,2.16,10.27,2.81,2.97.58,5.14,1.25,8.42.58,4.37-.9,6.55-5.85,3.53-3.95-4.77,3.01-5.27,3.3-11.2,1.87ZM147.84,95.25l-3.73,2.99c3.37.71,5.06,1.59,5.24,5.26,2.08.56,1.41-1.19,2.23-2.25.87-1.11.58-1.58,2.24-1.5.87.04,1.74,1.68,2.97-.37-2.01-2.35-1.99-4.23-1.48-7.13h-5.97c-.13-.35.1-1.03,0-1.5h-1.49c.24,1.18-.35,3.64,0,4.5ZM124.32,105.75v.75c.48-.25.48-.5,0-.75ZM123.95,108c-1.19.58-2.4.48-2.99.75-7.96,3.67,2.83,12.56,5.23,2.25,4.69,3.28,7.67,7.49,6.73,13.5,4.18-3.9-1.54-13.81-6.73-14.25.02-.24.03-.52,0-.75-.05-.49.04-1.01,0-1.5l-1.49-.75c-.82-.11-.61.49-.75.75Z"/>
  <path class="st57" d="M114.99,0h.75c-.25,0-.5,0-.75,0Z"/>
  <path class="st61" d="M123.95,109.5c.25.01.5,0,.75,0s.5,0,.75,0h.75c.03.23.02.51,0,.75-.02.26.05.53,0,.75-2.4,10.31-13.19,1.42-5.23-2.25.53,1.15,2.01.7,2.99.75Z"/>
  <path class="st70" d="M85.86,48c-2.07,1.98-1.52-4.54-1.31-5.45.19-.86,1.64-3.88,2.17-4.57,1.53-2.01,3.89-1.64,3.03.77-1.04,2.94-3.29,6-3.88,9.25Z"/>
  <path class="st74" d="M154.56,20.26c.55.55-1.26,4.45-1.43,5.68-.36,2.66,1.27,7.72-2.3,7.81.28-3.44-.7-9.16.91-12.2.63-1.19,2.14-1.96,2.82-1.29Z"/>
  <path class="st24" d="M149.34,92.25h5.97c-.51,2.9-.53,4.78,1.48,7.13-1.23,2.05-2.1.41-2.97.37-.43-3.29-3.19-4.06-4.48-7.5Z"/>
  <path class="st88" d="M116.48,43.5c-.76,2.39-.5,5.14-2.22,7.13l.73.37c-.24,0-1.85,1.36-2.98.75,1.07-3.47.5-5.04-.75-8.24,1.89-.27,3.38.82,5.22,0Z"/>
  <path class="st4" d="M147.84,95.25c.09.23,2.82,3.15,3.01,3.53.47.94-.1,2.02.72,2.47-.82,1.06-.15,2.81-2.23,2.25-.18-3.66-1.86-4.55-5.24-5.26l3.73-2.99Z"/>
  <path class="st3" d="M116.48,43.5c.33-.15,1.06-2.29,2.98-1.5.15.64-.19,1.83,0,2.25-1.5,2.01-2.64,5.76-1.49,8.25-.52-.33-2.69-1.5-2.99-1.5l-.73-.37c1.72-1.99,1.46-4.74,2.22-7.13Z"/>
  <path class="st0" d="M119.47,44.25c.42.89,3.35,4.01,2.98,4.47-3.32.14-1.34,3.56-3.35,5.27-.56-.24-.83-1.3-1.12-1.48-1.15-2.49,0-6.24,1.49-8.25Z"/>
  <path class="st59" d="M126.19,110.25c5.19.44,10.91,10.35,6.73,14.25.94-6.01-2.04-10.22-6.73-13.5.05-.22-.02-.49,0-.75Z"/>
  <path class="st48" d="M147.84,95.25c-.35-.86.24-3.31,0-4.5h1.49c.1.47-.13,1.15,0,1.5,1.29,3.44,4.05,4.21,4.48,7.5-1.66-.08-1.37.39-2.24,1.5-.82-.45-.25-1.53-.72-2.47-.19-.38-2.92-3.3-3.01-3.53Z"/>
  <path class="st67" d="M123.2,72c-.4.32-9.14-1.73-9.71-2.99,1.69-.34,10.34-1.07,10.4,1.11,0,.1-.62,1.82-.7,1.89Z"/>
  <path class="st75" d="M163.52,72.75c-2.15.41-1.2-.61-1.69-1.64-2.13-4.5-3.71-4.88-7.27-8.1,4.82.43,9.27,4.68,8.96,9.74Z"/>
  <path class="st76" d="M82.89,63.75c1.27-3.04,1.96-6.27,2.96-9.4.31-.98.02-2.34,1.51-2.6.5,4.44-.55,9.42-4.47,12Z"/>
  <path class="st10" d="M145.6,60c-.81-.47-2.37-.4-2.24-1.49,1.33-.36,5.79.89,6.56,1.68.38.39.05,1.08.15,1.32.09.2-.13.6.37.73l.37-.73.73.37-.74,1.88c-.56-.01-1.1-.69-1.49-.75-.24-.26-.5-.5-.75-.75-.46-.45-1.04-1.19-1.49-1.5-.23-.16-.43-.54-.75-.75l-.37-.74-.38.74ZM148.96,60.75v.75c.48-.25.48-.5,0-.75Z"/>
  <path class="st30" d="M123.95,108.75v.75c-.98-.05-2.46.4-2.99-.75.59-.27,1.8-.17,2.99-.75-.09.18.06.51,0,.75Z"/>
  <path class="st69" d="M126.19,108l-.75,1.5c-.25,0-.5,0-.75,0l-.75-.75c.06-.24-.09-.57,0-.75.29-.14.52-.5.75-.75l1.49.75Z"/>
  <path class="st77" d="M148.59,62.25v.75c-.36-.12-1.02.11-1.49,0v-2.25c.45.31,1.03,1.05,1.49,1.5Z"/>
  <rect class="st89" x="129.93" y="15.01" width=".73" height="1.49"/>
  <rect class="st92" x="103.79" y="15.76" width="1.49" height=".73"/>
  <path class="st28" d="M126.19,109.5h-.75l.75-1.5c.04.49-.05,1.01,0,1.5Z"/>
  <path class="st46" d="M124.32,105.75c.48.25.48.5,0,.75v-.75Z"/>
  <path class="st46" d="M123.95,108c.13-.26-.07-.86.75-.75-.22.25-.46.61-.75.75Z"/>
  <path class="st46" d="M99.68,21.75c.48.25.48.5,0,.75v-.75Z"/>
  <path class="st55" d="M100.06,24.75h-.75c0-.97.75-.97.75,0Z"/>
  <path class="st63" d="M99.31,24.75h.75c0,.97-.75.97-.75,0Z"/>
  <path class="st50" d="M146.35,60c-.17-.11-.56.11-.75,0l.38-.74.37.74Z"/>
  <path class="st2" d="M149.34,63c-.26-.04-.55.07-.75,0v-.75c.25.25.51.49.75.75Z"/>
  <path class="st44" d="M150.08,61.5h.75l-.37.73c-.5-.13-.28-.54-.37-.73Z"/>
  <path class="st46" d="M124.7,109.5c-.25,0-.5.01-.75,0v-.75l.75.75Z"/>
  <path class="st44" d="M148.96,60.75c.48.25.48.5,0,.75v-.75Z"/>
  <g>
    <path class="st14" d="M35.09,121.5c.15.32.62.52.75.75.24.45.3.82.75,1.5.19.29.57.49.75.75v.75c.24.28.5.49.75.75,1.38,1.44,2.81,2.67,4.48,3.75-.18.09-.87,1.54-1.97,2.13-2.14,1.15-12.18,6.9-13.71,5.37-.19-1.3.15-2.35.57-3.54.3-.85,5.68-11.21,6.09-11.73.68-.89,1.27-.32,1.55-.47Z"/>
    <path class="st14" d="M71.68,108c1.93-.12,1.21,1.27,2.03,1.48,1.58.41,2.89-.83,3.69,1.5l.99.02c-4.63,2.42-9.53,5.06-14.19,7.5-.71-1.28-2.42-.06-3.54-.54s-1.62-1.87-2.43-2.46c-.36-2.17,3.32-2.49,5.17-3.46.93-.49,1.78-1.55,2.3-1.79,1.26-.58,4.89-2.18,5.97-2.25Z"/>
    <path class="st36" d="M73.17,75c.44,1.73-.43,3.07-.75,4.5-1.65.2-3.36-1.86-3,.74l-1.18-1.49c-2.05,1.07-4.5,0-6.28,0-.25,0-.5,0-.75,0s-.51-.04-.75,0-.5-.03-.75,0c.43-2.8-.3-6.07,2.74-8.14,1.59-.54,4.76.25,6.36.87,2.45.95,3.1,2.71,4.34,3.52Z"/>
    <path class="st14" d="M53.76,117c1.32,1.2,1.27.88,2.24,1.5.3.19.55,1.05.9,1.2.84.37,2.8-.45,3.58,1.05-4.25,2.24-9.09,4.47-13.44,6.75-1.31-2.88-4.91-.55-5.97-3.75,2.4-.82,4.6-2.65,6.72-3.75s4.36-1.46,5.97-3Z"/>
    <path class="st72" d="M89.6,105c-2.22-.8-5.53-1.79-7.47-3-1.62-1.01-4.36-3.86-5.97-5.25,5.26.92,9.8.95,15.08.93,2.07,0,1.46,1.75,1.35-1.68.77,2.28,1.81,4.46,1.4,6.99-.68,2.09-3.67,1.55-4.39,2.01Z"/>
    <path class="st41" d="M82.88,89.25c.53,1.04,2.4,2.91,3.73,2.25-.4.19-2.16,1.65-2.97,1.87l.75,1.87h7.45c.11.25.66.49.75.75.11,3.44.72,1.68-1.35,1.68-5.28.02-9.82-.02-15.08-.93-1.3-1.12-1.94-1.99-2.99-3l4.48.75c.15-.66-.19-1.78,0-2.25.02-.05.62-.66.75-.75.68-.53,1.57-.48,2.24-.75.87-.35,1.92-.09,2.24-1.5Z"/>
    <path class="st12" d="M42.56,115.5c.31-.21.63-.35.75-.75h1.49c.63,3.47,1.98,2.41,2.99,5.25-2.12,1.1-4.32,2.93-6.72,3.75h-.75c-.2-.27-.62-.49-.75-.75-.27-.55-.36-.85-.75-1.5-.17-.29-.56-.48-.75-.75-.12-.17.12-.59,0-.75-.47-.65-.55-.88-1.49-.75.68-1.83.36-3.77,2.24-6h.75l1.48,2.67c.4.48,1.09-.13,1.51-.42Z"/>
    <path class="st58" d="M89.6,105c-1.34.85-.45,2.22-5.23,3-6.23,1.02-3.92-1.19-7.47-2.25.97-2.13,3.33-2.76,5.23-3.75,1.93,1.21,5.24,2.2,7.47,3Z"/>
    <path class="st37" d="M58.24,87.75c.4,2.57,3.84,6.62,5.97,8.25-.1.19.1.55,0,.75-.22.41-.84.78-.75,1.5-.45.1-1.19-.14-1.49,0-1.76-.03-2.78-1.71-3.73-3-1.41-1.91-2.51-4.7-3.73-6.75-.12-.2.09-.86-.75-.75.66-.9,1.05-1.84,2.24-2.25.48,1.04,1.2,1.77,2.24,2.25Z"/>
    <path class="st26" d="M48.53,97.5c2.03,1.72,5.05,3.91,7.47,5.25-1.22,1.83-2.77,4.02-5.23,3.75-.82-1.6-3.45-4.22-3.73-5.25-.1-.36-.09-1.84,0-2.25.05-.22,1-.8.75-1.5h.75Z"/>
    <path class="st49" d="M72.43,80.25l2.98-.74c-.35,2.66,3.33,1.18,5.24,1.49,1.63,1.5,2.95,2.94,4.48,4.5l-2.99.75c-1.12-3.26-2.26-1.95-5.23-1.5-.43-.8,1.02-1.99-2.24-1.5-.09.73.09,1.53,0,2.25-1.17-.9-2.48-.59-3.73-.75.71-1.49,1.09-2.89,1.49-4.5Z"/>
    <path class="st5" d="M50.77,95.25c3.59.35,5.06,3.23,8.21,4.5-.19.18-.68,2.52-1.49,3-.44-.1-1.23.15-1.49,0-2.41-1.33-5.44-3.53-7.47-5.25l1.49-2.25h.75Z"/>
    <path class="st32" d="M76.91,105.75c3.55,1.06,1.23,3.27,7.47,2.25-.94,2.56-4.59,2.28-5.97,3l-.99-.02c-.8-2.33-2.12-1.09-3.69-1.5-.82-.21-.1-1.6-2.03-1.48v-.75c-.02-.25.03-.5,0-.75.34-.13.65-.4.75-.75.05-.19.02-.54,0-.75,1.48.95,2.78.24,4.48.75Z"/>
    <path class="st35" d="M112.75,93l-.75,1.5c-3.34-.66-6.83-2.08-10.27-2.81-2.06-.44-5.18.65-6.16-1.68,6.46-1.8,11.48,1.62,17.17,2.99Z"/>
    <path class="st27" d="M50.77,106.5c.22.42-.21,1.74,0,2.25-1.47-.24-1.69,1.08-2.24,1.5-.16.12-.58-.12-.75,0-.47-1.41-1.55-2.48-2.24-3.75-.2-.37.09-1.27-.75-1.5v-.75c.57-1.16.44-2.48,2.24-3,.29,1.03,2.91,3.65,3.73,5.25Z"/>
    <path class="st23" d="M85.12,85.5c2.99,3.05,2.42,3.68,3.73,5.25-.49.99-1.76.52-2.24.75-1.34.66-3.2-1.21-3.73-2.25-.66-1.29-.45-2.13-.75-3l2.99-.75Z"/>
    <path class="st8" d="M61.23,82.5c1.28,1.23,1.97,3.71,2.99,5.25-2.23.38-3.54-.58-4.85-2.24-.51.46-.94.77-1.12,1.49-.05.19-.03.55,0,.75-1.04-.48-1.76-1.21-2.24-2.25-.09-.19.08-.52,0-.75.27-.23.5-.5.75-.75s.6-.46.75-.75c.1-.19-.1-.54,0-.75.24-.51.51-.99.75-1.5h.75c.21,1.31,1.98,1.25,2.24,1.5Z"/>
    <path class="st93" d="M41.07,123.75c1.06,3.2,4.67.87,5.97,3.75-1.37.72-3.11,1.54-4.48,2.25-1.67-1.08-3.1-2.31-4.48-3.75l2.24-2.25h.75Z"/>
    <path class="st73" d="M54.51,88.5c1.23,2.05,2.32,4.84,3.73,6.75-2.43,1.57-5.88-.58-6.72-3h-.75c.26-.71,1.07-1.52,1.49-2.25l.75-.75c.11-.18-.12-.58,0-.75h1.49Z"/>
    <path class="st36" d="M73.17,75c4.49,2.96,3.62,2.46,7.47,6-1.91-.32-5.59,1.17-5.24-1.49l-2.98.74c.06-.23-.05-.51,0-.75.32-1.43,1.19-2.77.75-4.5Z"/>
    <path class="st95" d="M51.52,92.25c.84,2.42,4.29,4.57,6.72,3,.95,1.29,1.97,2.97,3.73,3-.48.23-2.86,1.39-2.99,1.5-3.15-1.27-4.63-4.15-8.21-4.5l-.75-.75v-.75c.24-.09.59.1.75,0,.32-.21.73-.25.75-.75v-.75Z"/>
    <path class="st56" d="M58.24,115.5c.82.59,1.3,1.98,2.43,2.46s2.83-.75,3.54.54c-.9.47-2.24,1.46-3.73,2.25-.78-1.5-2.73-.67-3.58-1.05-.35-.16-.6-1.01-.9-1.2-.73-1.57-.39-2.53.75-3.75.39.31,1.07.45,1.49.75Z"/>
    <path class="st78" d="M91.84,95.25h-7.45s-.75-1.88-.75-1.88c.81-.22,2.57-1.69,2.97-1.87.48-.23,1.75.24,2.24-.75,2.07,2.48,1.2.44,2.99,4.5Z"/>
    <path class="st11" d="M112.75,93c5.93,1.43,6.43,1.13,11.2-1.87,3.02-1.9.83,3.05-3.53,3.95-3.27.67-5.45,0-8.42-.58l.75-1.5Z"/>
    <path class="st51" d="M38.08,120l-.73.38.73.37c.18.27.58.46.75.75l-.73.37,1.48,1.13c.13.26.55.48.75.75l-2.24,2.25c-.25-.26-.51-.47-.75-.75-.02-.03.51,0,0-.75-.17-.26-.56-.46-.75-.75h.75l.73-.37-1.48-1.13h-.75c-.12-.23-.59-.43-.75-.75.2-.11.6.12.75,0l.73-.37-.73-.37c.19-.32.63-1.2.75-1.5.94-.13,1.03.1,1.49.75Z"/>
    <path class="st13" d="M45.55,106.5c-1.72.88-2.14,2.93-2.99,4.5-.23.44-.8.81-.75,1.5-.25-.02-.5,0-.75,0s-.52-.04-.75,0l-.75-.75c2.14-1.5,3.03-3.88,4.48-6,.17-.24.58-.43.75-.75.83.23.55,1.13.75,1.5Z"/>
    <path class="st21" d="M60.48,80.25c.03.26-.05.54,0,.75.09.36.4.63.75.75v.75c-.26-.25-2.03-.19-2.24-1.5l.73-.37-.73-.37v-.75l.75-.75c.25-.03.5.04.75,0,.04.49-.05,1.01,0,1.5Z"/>
    <polygon class="st7" points="72.43 67.5 73.17 67.88 72.42 70.5 70.93 69 72.43 67.5"/>
    <path class="st64" d="M56.75,82.5v1.5c-.25.25-.47.52-.75.75-1.3-3.78.2-1.59.75-2.25Z"/>
    <path class="st65" d="M58.24,81c-.24.51-.51.99-.75,1.5h-.75c.36-.44-.02-1.85,1.49-2.25v.75Z"/>
    <path class="st53" d="M40.32,112.5c.23-.04.51,0,.75,0l-1.49.75h-.75c.23-.27.35-.64.75-.75.24-.03.51.04.75,0Z"/>
    <path class="st25" d="M47.04,99l.75-1.5c.25.7-.7,1.28-.75,1.5Z"/>
    <rect class="st19" x="70.94" y="65.26" width=".73" height="1.49"/>
    <path class="st62" d="M52.27,90c.18-.3.59-.5.75-.75l-.75.75Z"/>
    <path class="st90" d="M44.8,105h-.75c.18-.29.63-.51.75-.75v.75Z"/>
    <path class="st45" d="M44.05,105.75v-.75h.75c-.16.32-.58.51-.75.75Z"/>
    <path class="st6" d="M53.76,88.5h-.75c.2-.29.56-.49.75-.75v.75Z"/>
    <path class="st65" d="M50.77,95.25h-.75c.02-.25-.02-.5,0-.75l.75.75Z"/>
    <rect class="st71" x="58.24" y="80.25" width=".75" height=".75"/>
    <path class="st71" d="M58.99,79.5c.14-.29.72-.6.75-.75l-.75.75Z"/>
    <path class="st92" d="M70.93,69l1.49-1.5-1.49,1.5Z"/>
    <path class="st25" d="M40.32,112.5c-.24.04-.5-.03-.75,0v-.75l.75.75Z"/>
    <path class="st96" d="M50.03,94.5c0-.09-.72-.23-.73-.38l.73-.37v.75Z"/>
    <path class="st65" d="M50.77,93.75v-.75h.75c-.02.5-.43.54-.75.75Z"/>
    <path class="st91" d="M51.52,93h-.75c.06-.23-.08-.53,0-.75h.75v.75Z"/>
    <path class="st86" d="M35.84,121.5c.12-.1-.11-.56,0-.75l.73.37-.73.37Z"/>
    <path class="st17" d="M37.33,123.75h-.75c-.44-.68-.5-1.05-.75-1.5h.75l.75,1.5Z"/>
    <path class="st17" d="M37.33,125.25v-.75c.51.75-.02.72,0,.75Z"/>
    <path class="st85" d="M57.49,102.75v1.5c1.5-1.12,1.86-1.51,3.73-.74l-1.48,1.48c1.96,1.35,5.25,3.09,5.97,5.26-.52.24-1.37,1.3-2.3,1.79-1.85.97-5.53,1.29-5.17,3.46-.42-.3-1.1-.44-1.49-.75-1.62-1.3-5.24-4.23-5.97-6-.21-.51.22-1.83,0-2.25,2.46.27,4.01-1.92,5.23-3.75.27.15,1.05-.1,1.49,0Z"/>
    <path class="st33" d="M63.47,98.25v.75l.23,1.29c.27.38,1.12.67,1.26.96.1.21-.11.58,0,.75.11.18-.12.58,0,.75.38.53.47.49.75.75.24.23.46.6.75.75s1.85.67,2.24.75c.4,1.34,1.4,1.12,2.24,1.5.23.1.46.58.75.75v.75c-1.08.07-4.72,1.67-5.97,2.25-.72-2.17-4.01-3.91-5.97-5.26l1.48-1.48c-1.86-.77-2.23-.38-3.72.74v-1.5c.81-.48,1.29-2.82,1.49-3,.12-.11,2.5-1.27,2.99-1.5.3-.14,1.05.1,1.49,0Z"/>
    <path class="st39" d="M61.97,78.75c1.78,0,4.23,1.07,6.28,0l1.18,1.49c-.36-2.6,1.34-.54,3-.74-.05.24.06.52,0,.75-.41,1.61-.78,3.01-1.49,4.5-1.26-.16-2.43,0-3.67-.67l-.8,1.42c.14-1.18-.3-1.72-1.5-1.49-.96-1.42-3.02-2.74-2.99-5.25Z"/>
    <path class="st31" d="M64.96,84c1.04,1.53,1.9,3.87,3.73,5.25v.75c-.58.36-.53,1.04-.75,1.5-.42-.29-1.18-.44-1.49-.75-.69-.68-1.66-2.13-2.24-3-1.02-1.54-1.71-4.02-2.99-5.25v-3.75c.25,0,.5,0,.75,0-.04,2.51,2.03,3.83,2.99,5.25Z"/>
    <path class="st65" d="M61.23,80.25h-.75c-.05-.49.04-1.01,0-1.5.24-.04.5,0,.75,0v1.5Z"/>
    <path class="st94" d="M48.53,110.25c.25,2.34,3.36,5.06,5.23,6.75-1.61,1.54-3.96,1.95-5.97,3-1.01-2.84-2.36-1.78-2.99-5.25-.08-.47.09-1.03,0-1.5-.05-.25.07-.54,0-.75,1.21-.82,1.98-1.51,2.99-2.25.16-.12.59.12.75,0Z"/>
    <path class="st38" d="M50.77,108.75c.73,1.77,4.36,4.7,5.97,6-1.13,1.22-1.48,2.18-.75,3.75-.97-.62-.92-.3-2.24-1.5-1.87-1.69-4.98-4.41-5.23-6.75.55-.42.77-1.74,2.24-1.5Z"/>
    <path class="st80" d="M73.17,93.75c1.05,1.01,1.69,1.88,2.99,3,1.61,1.39,4.36,4.24,5.97,5.25-1.9.99-4.26,1.62-5.23,3.75-1.7-.51-3,.2-4.48-.75-.25-2.43-6.93-5.31-8.21-8.25.1-.2-.1-.56,0-.75.15-.27,1.48-1.75,2.24-3,.16-.26.58-.47.75-.75.15-.26.61-.47.75-.75.22-.46.17-1.14.75-1.5,1.44,1.15,3.18,2.49,4.48,3.75Z"/>
    <path class="st18" d="M72.43,89.25c1.95.32,4.3,1.5,3.74,3.75l1.49-.75c-.19.47.15,1.59,0,2.25l-4.48-.75c-1.3-1.26-3.04-2.6-4.48-3.75v-.75c1.14,1.1,3.44-.05,3.73,0Z"/>
    <path class="st24" d="M82.13,86.25c.3.87.09,1.71.75,3-.32,1.41-1.37,1.15-2.24,1.5-.86-2.22-2.62-3.94-3.73-6,2.96-.45,4.1-1.76,5.23,1.5Z"/>
    <path class="st48" d="M74.67,85.5c.1-.72-.09-1.52,0-2.25,3.26-.49,1.8.7,2.24,1.5,1.11,2.06,2.87,3.78,3.73,6-.67.27-1.56.22-2.24.75.22-2.67-1.53-3.76-3.73-4.5.13-.28-.06-1.02,0-1.5Z"/>
    <path class="st22" d="M78.4,91.5c-.12.09-.73.7-.75.75l-1.49.75c.56-2.25-1.79-3.43-3.74-3.75.07-1.07,2.13-2.02,2.24-2.25,2.2.74,3.95,1.83,3.73,4.5Z"/>
    <path class="st79" d="M42.56,113.25v2.25c-.42.29-1.11.9-1.51.42l-1.48-2.67,1.49-.75c.25,0,.5-.02.75,0,.18.02.48.65.75.75Z"/>
    <path class="st54" d="M44.8,114.75h-1.49v-.75c.26-.24.5-.5.75-.75h.75c.09.47-.08,1.03,0,1.5Z"/>
    <path class="st17" d="M39.57,123l-1.48-1.13.73-.37c.38.65.48.95.75,1.5Z"/>
    <path class="st66" d="M42.56,115.5v-.75h.75c-.12.4-.44.54-.75.75Z"/>
    <path class="st83" d="M38.08,120.75l-.73-.37.73-.38c.12.16-.12.58,0,.75Z"/>
    <path class="st9" d="M58.24,87c1.5.22,1.83,2.39,2.39,2.8.26.2,5.01,1.39,5.83,1.7l-.6,1.14.6.36c-.76,1.25-2.09,2.73-2.24,3-2.13-1.63-5.58-5.68-5.97-8.25-.03-.2-.05-.56,0-.75Z"/>
    <path class="st40" d="M71.68,106.5c.03.25-.02.5,0,.75-.29-.17-.52-.65-.75-.75v-.75c.23.06.51-.05.75,0,.07.17-.03.48,0,.75Z"/>
    <path class="st40" d="M70.93,105v.75c-.32-.09-.79.15-1.11,0l-.38-.74h1.49Z"/>
    <path class="st40" d="M64.21,96.75c1.29,2.94,7.96,5.82,8.21,8.25.02.21.05.56,0,.75h-.75c-.15-.35-.4-.61-.75-.75l-.49-.67c-.63-.09-.94.68-1,.67-.24-.04-.51.05-.75,0-.39-.08-1.96-.6-2.24-.75v-.75l-.75-1.49c.48.03,1.09-.11,1.49,0,.14.24-.12,1.06,0,1.5h1.49c-.04-.72-.86-1.33-1.49-1.5-.32-.53-.92-.68-1.49-.75-.18-1.21-.85-2.7-2.24-2.25v-.75c-.09-.72.53-1.09.75-1.5Z"/>
    <path class="st15" d="M54.51,88.5h-.75v-.75c.84-.11.63.55.75.75Z"/>
    <path class="st52" d="M64.96,84c1.21-.23,1.64.31,1.5,1.49l.8-1.42c1.24.67,2.41.51,3.67.67s2.56-.15,3.73.75c-.06.48.13,1.22,0,1.5-.11.23-2.17,1.18-2.24,2.25-.3-.05-2.59,1.1-3.73,0-1.83-1.38-2.7-3.72-3.73-5.25Z"/>
    <path class="st29" d="M71.68,106.5c-.03-.27.07-.58,0-.75h.75c-.1.35-.41.62-.75.75Z"/>
    <path class="st29" d="M70.93,105h-1.49c.06.01.37-.76,1-.67l.49.67Z"/>
    <path class="st29" d="M70.93,105.75v.75c-.84-.38-1.84-.16-2.24-1.5.24.05.51-.04.75,0l.38.74c.33.16.79-.08,1.11,0Z"/>
    <path class="st29" d="M71.68,105.75c-.24-.05-.52.06-.75,0v-.75c.35.14.6.4.75.75Z"/>
    <path class="st43" d="M47.79,110.25c-1.01.74-1.78,1.43-2.99,2.25-.2-.62-.76-1.49-1.49-1.5h-.75c.85-1.57,1.26-3.62,2.99-4.5.69,1.27,1.77,2.34,2.24,3.75Z"/>
    <path class="st47" d="M64.21,87.75c.58.87,1.55,2.32,2.24,3v.75c-.82-.3-5.57-1.5-5.83-1.7-.55-.42-.89-2.58-2.39-2.8.18-.72.61-1.03,1.12-1.49,1.32,1.66,2.62,2.62,4.85,2.24Z"/>
    <path class="st42" d="M56.75,84v-.75h.75c-.15.29-.51.51-.75.75Z"/>
    <path class="st91" d="M57.49,83.25h-.75v-.75h.75c-.1.21.1.56,0,.75Z"/>
    <polygon class="st86" points="37.33 123.75 36.59 122.25 38.07 123.38 37.33 123.75"/>
    <path class="st60" d="M43.31,111c.73,0,1.3.88,1.49,1.5-.28.19-.51.51-.75.75s-.48.51-.75.75v-.75c-.01-.84-.69.02-.75,0-.27-.1-.57-.73-.75-.75-.06-.69.51-1.06.75-1.5l.37.73.37-.73Z"/>
    <path class="st8" d="M61.23,81.75c-.35-.12-.66-.39-.75-.75h.75v.75Z"/>
    <path class="st34" d="M61.23,81h-.75c-.05-.21.03-.49,0-.75h.75v.75Z"/>
    <polygon class="st84" points="58.99 81 58.99 80.25 59.72 80.63 58.99 81"/>
    <path class="st87" d="M63.47,99c1.39-.45,2.06,1.04,2.24,2.25h-.75c-.14-.29-.99-.58-1.26-.96l-.23-1.29Z"/>
    <path class="st20" d="M64.96,102c-.11-.17.1-.54,0-.75h.75c.08.55-.2.82-.75.75Z"/>
    <path class="st81" d="M67.2,102c-.4-.1-1.01.04-1.49,0l.75,1.49h-.75l-.75-.75c-.12-.17.11-.57,0-.75.55.07.83-.2.75-.75.57.07,1.18.22,1.49.75Z"/>
    <path class="st65" d="M65.71,103.5c-.27-.26-.37-.22-.75-.75l.75.75Z"/>
    <path class="st57" d="M66.45,104.25c-.28-.15-.5-.52-.75-.75h.75v.75Z"/>
    <path class="st82" d="M67.95,91.5c-.14.28-.6.49-.75.75-.18-.28-.43-.63-.75-.75v-.75c.31.31,1.08.46,1.49.75Z"/>
    <path class="st91" d="M44.8,113.25h-.75c.24-.24.47-.56.75-.75.07.21-.05.5,0,.75Z"/>
    <path class="st1" d="M67.2,92.25c-.16.28-.59.49-.75.75l-.6-.36.6-1.14c.31.12.56.47.75.75Z"/>
    <polygon class="st62" points="43.31 114 43.31 114.75 42.56 114.75 42.56 113.25 43.31 113.25 43.31 114"/>
    <polygon class="st91" points="42.56 111 43.31 111 42.93 111.74 42.56 111"/>
    <path class="st16" d="M43.31,113.25h-.75c.06.02.73-.84.75,0Z"/>
    <path class="st29" d="M67.2,102c.63.17,1.45.77,1.49,1.49h-1.49c-.12-.44.14-1.25,0-1.49Z"/>
  </g>
</svg>