<?xml version="1.0" encoding="UTF-8"?>
<svg id="Layer_1" data-name="Layer 1" xmlns="http://www.w3.org/2000/svg" version="1.1" viewBox="0 0 85 85">
  <defs>
    <style>
      .cls-1 {
        fill: #e41e26;
      }

      .cls-1, .cls-2, .cls-3, .cls-4 {
        stroke-width: 0px;
      }

      .cls-2 {
        fill: #124c95;
      }

      .cls-2, .cls-3, .cls-4 {
        fill-rule: evenodd;
      }

      .cls-3 {
        fill: #bee4f8;
      }

      .cls-5 {
        display: none;
      }

      .cls-4 {
        fill: #e42e2b;
      }
    </style>
  </defs>
  <g class="cls-5">
    <path class="cls-1" d="M6.45,42.39c0-.07,0-.09,0-.11.23-.44.23-.9.1-1.36-.3-1.03-.33-2.08-.4-3.14-.03-.53.15-.95.56-1.28.05-.04.1-.09.15-.14.47-.44.82-.92.87-1.6.05-.65.18-1.29.1-1.94-.04-.3-.11-.59-.17-.89-.04-.2-.03-.39.02-.59.04-.18.1-.36.08-.55,0-.12.05-.16.17-.16.46,0,.93,0,1.37,0,.09.1.02.17,0,.24-.08.34-.06.67.03,1,.13.45.18.91.16,1.38-.02.51,0,1.02.06,1.53.02.18,0,.35-.05.51-.09.24-.11.49-.04.72.31,1.05.18,2.12.2,3.19.02.85-.04,1.7-.14,2.54-.05.38.06.67.34.93.95.88,2.03,1.12,3.25.69.49-.17.86-.49,1.11-.95.42-.77.74-1.57.74-2.47,0-.55-.13-1.06-.37-1.54-.28-.56-.66-1.04-1.13-1.45-.52-.46-1.14-.66-1.82-.69-.24-.01-.49,0-.73.02-.24,0-.4-.09-.49-.31-.09-.2-.18-.4-.23-.62-.09-.41.09-.64.51-.59.44.05.86.03,1.27-.11.8-.26,1.44-.76,1.9-1.45.59-.88.49-2.15-.18-2.97-.21-.25-.47-.42-.77-.52-.55-.18-1.11-.33-1.69-.41-.28-.04-.56-.07-.83,0-.76.21-1.52.17-2.28.08-.52-.06-1.01,0-1.49.24-.63.32-1.31.38-2,.35-.37-.02-.64-.39-.54-.77.18-.68.58-1.26,1.5-1.32.78-.05,1.55-.17,2.33-.21,1.11-.05,2.21.06,3.3.18.46.05.89.16,1.31.33.38.16.78.23,1.17.32.2.05.36.14.5.29.2.22.42.44.62.66.9.97,1.1,2.62.58,3.65-.35.71-.8,1.33-1.45,1.8-.05.03-.1.06-.12.13.02.06.09.07.13.09,1.23.54,2.04,1.46,2.52,2.7.29.77.43,1.56.51,2.38.06.61-.08,1.18-.38,1.71-.31.55-.65,1.07-.98,1.6-.13.2-.33.32-.54.43-.22.12-.47.21-.56.49-.03.11-.15.14-.26.14-.13,0-.26,0-.38,0-.2,0-.4.02-.56.16-.15.14-.29.12-.45.03-.36-.19-.73-.19-1.12-.1-.45.11-.92.14-1.38.05-.42-.08-.79-.26-1.13-.52-.23-.18-.47-.34-.71-.5-.22-.14-.43-.19-.68-.05-.21.12-.35.03-.39-.21-.02-.14-.02-.28-.04-.42-.08-.47-.25-.62-.72-.62-.08,0-.16,0-.26,0Z"/>
    <path class="cls-1" d="M30.41,40.86c.18-.21.29-.42.35-.67.1-.42.22-.83.32-1.25.04-.15.11-.25.24-.32.26-.14.53-.23.83-.23.39,0,.67.17.8.55.2.56.38,1.12.58,1.68.07.21.14.42.22.62.03.09.08.17.14.24.15.18.31.18.46,0,.31-.39.61-.79.85-1.23.11-.21.25-.39.45-.52.58-.4,1.13-.28,1.45.34.56,1.07,1.12,2.14,1.67,3.21.18.35.39.69.61,1.01.49.72,1.2,1.07,2.03,1.23.19.04.39.05.59.08.18.02.25.11.16.25-.41.58-.76,1.2-1.31,1.66-.36.3-.76.33-1.17.13-.55-.26-1.03-.63-1.42-1.1-.37-.43-.68-.91-.93-1.43-.42-.84-.81-1.7-1.16-2.57-.02-.05-.04-.11-.07-.16-.2-.35-.41-.36-.67-.04-.16.2-.32.4-.48.59-.19.24-.33.5-.39.81-.06.33-.27.53-.56.66-.3.13-.56.04-.69-.27-.09-.22-.15-.4-.42-.48-.21-.06-.29-.29-.35-.49-.09-.28-.15-.56-.24-.84-.05-.18-.1-.36-.21-.51-.1-.16-.25-.17-.33,0-.31.61-.79,1.13-.87,1.84-.04.34-.23.39-.5.17-.29-.24-.32-.24-.65-.06-.51.28-.66.21-.78-.37-.05-.24-.08-.48-.13-.72-.06-.25-.15-.29-.37-.16-.37.21-.75.37-1.16.45-.87.16-1.72.08-2.51-.33-.78-.4-1.28-1.02-1.39-1.92-.04-.31,0-.6.09-.89.18-.6.48-1.13.9-1.59.39-.42.86-.71,1.41-.85.42-.11.84-.17,1.26-.25.23-.04.44,0,.63.14.26.2.55.21.86.13.7-.18.82-.1.99.61.17.72.33,1.45.52,2.17.07.26.19.47.39.68ZM26.61,39.41c-.07-.28-.12-.65-.35-.96-.17-.24-.37-.25-.59-.05-.04.04-.08.08-.11.13-.13.22-.29.42-.46.61-.2.24-.31.53-.22.84.24.86.74,1.51,1.61,1.84.2.08.41.09.61.04.18-.04.28-.16.33-.33.07-.24-.01-.35-.26-.36-.18,0-.34.06-.52.08-.18.02-.23-.03-.23-.21,0-.06.01-.12.02-.17.05-.46.1-.92.17-1.47Z"/>
    <path class="cls-1" d="M20.99,47.7c.03-1.48.02-2.95-.03-4.42-.02-.66-.12-1.32-.24-1.97-.09-.51-.09-1.02.01-1.52.13-.61.77-.95,1.35-.72.3.12.45.35.49.66.04.4.09.81.12,1.21.19,2.94.35,5.89.39,8.84.02,1.23,0,2.46.02,3.69.01.53-.19,1-.53,1.4-.14.16-.27.2-.42.13-.15-.07-.23-.24-.17-.45.09-.32.17-.65.21-.99,0-.08.02-.16.02-.24-.02-.28-.17-.39-.45-.32-.14.03-.27.07-.41.07-.24,0-.33-.07-.4-.3-.04-.14-.04-.27-.04-.41.03-1.56.06-3.11.1-4.67Z"/>
    <path class="cls-1" d="M19.73,44.19c-.14-.04-.17-.12-.2-.21-.07-.25-.26-.34-.5-.35-.19-.01-.37-.02-.55-.06-.49-.1-.69-.33-.75-.82-.11-.95-.18-1.9-.24-2.85-.04-.64.3-1.02.93-1.06.2-.01.4,0,.59,0,.3.02.39.1.4.41.03.52.04,1.04.06,1.57,0,.23.02.46.01.7-.01.44.13.82.37,1.17.07.09.13.19.18.3.11.21.11.43-.02.63-.11.18-.2.37-.3.57Z"/>
    <path class="cls-1" d="M18.48,32.83c.34,0,.56.12.65.41.15.46.3.93.42,1.4.12.52-.27,1.09-.78,1.17-.28.05-.51-.04-.65-.29-.24-.43-.56-.76-1.03-.94-.17-.06-.23-.2-.21-.36.02-.17.05-.34.16-.49.34-.44.77-.73,1.3-.88.06-.02.11-.02.14-.02ZM18.6,35c.24,0,.41-.13.47-.33.05-.15.03-.3-.11-.4-.19-.15-.65-.18-.86-.06-.2.11-.24.27-.12.46.15.24.39.3.62.33Z"/>
    <path class="cls-1" d="M22.94,36.06c.1.27.15.51.17.77.02.21-.04.4-.23.51-.19.11-.38.06-.56-.04-.24-.15-.42-.36-.6-.57-.16-.19-.31-.37-.49-.54-.49-.5-.35-1.26.27-1.56.24-.11.49-.21.75-.26.21-.04.39,0,.55.15.23.22.24.5.03.74-.11.12-.25.21-.38.29-.12.07-.24.13-.36.21-.26.17-.33.33-.24.54.13.29.45.46.7.38.16-.05.26-.15.28-.32.01-.09-.02-.18.11-.29Z"/>
    <path class="cls-1" d="M64.16,47.98c-.19.04-.38-.01-.58-.03-.53-.04-.81.13-.97.64-.11.34-.19.69-.26,1.05-.08.42-.35.49-.7.29-.34-.2-.61-.14-.9.05-.54.34-1.09.67-1.63,1.01-.43.27-.86.56-1.38.64-.99.16-1.99.2-2.97-.08-.48-.14-.91-.1-1.34.15-.1.06-.2.12-.31.15-.25.06-.5.13-.69-.14-.1-.14-.27-.18-.43-.2-.34-.04-.67-.02-1.01,0-.12,0-.23.02-.35.01-.17-.01-.3-.09-.31-.27-.01-.35-.24-.5-.52-.62-.3-.13-.59-.27-.88-.41-.2-.1-.33-.24-.36-.47-.05-.31-.26-.54-.46-.76-.65-.71-1.16-1.51-1.55-2.38-.07-.16-.1-.33-.11-.5-.05-.81.16-1.59.28-2.38.16-.99.33-1.97.7-2.9.77-1.98,2.08-3.44,4.09-4.22,1.28-.49,2.61-.62,3.97-.52.63.04,1.25.09,1.88.1.39,0,.56.31.65.62.09.33,0,.53-.29.7-.55.32-1.14.5-1.78.57-.68.08-1.37.12-2.04.27-2.46.55-4.43,2.72-4.7,5.15-.14,1.23.1,2.38.61,3.48.14.31.31.59.49.89.62,1.05,1.56,1.62,2.73,1.86.83.16,1.66.14,2.5.04.27-.03.53-.07.8-.1.49-.05.92-.25,1.29-.57.26-.22.53-.42.82-.58.47-.27.8-.67,1.04-1.15.32-.66.66-1.31,1.02-1.94.33-.58.42-1.22.42-1.88,0-1.22-.02-2.44-.04-3.66-.02-2-.04-4-.06-5.99,0-.54.05-1.07.12-1.6,0-.06.01-.12.03-.17.06-.19.16-.24.34-.14.09.05.17.11.26.18.34.26.7.45,1.14.48.27.02.39.23.5.44.23.43.4.89.53,1.36.12.45.17.91.16,1.38-.05,1.32-.08,2.65-.2,3.97-.08.88-.04,1.76.02,2.64.07.94.18,1.87.18,2.82,0,.35-.03.7-.1,1.04-.03.16-.04.32,0,.48.1.34.17.7.33,1.02.03.06.06.13.03.21Z"/>
    <path class="cls-1" d="M68.75,47.97c-.05,1.64-.12,3.27-.21,4.91-.05.99-.13,1.97-.2,2.95-.03.43-.12.85-.34,1.23-.17.3-.38.56-.67.74-.18.11-.36.08-.52-.03-.18-.12-.18-.29-.12-.47.12-.38.26-.75.39-1.12.08-.23.08-.46.01-.68-.07-.23-.18-.33-.43-.32-.16,0-.32.03-.49.05-.14.02-.28.02-.42,0-.19-.04-.31-.15-.35-.34-.04-.15-.03-.3-.02-.45.11-1.38.22-2.76.33-4.13.13-1.61.26-3.22.38-4.83.1-1.38.08-2.76.03-4.14-.04-.95-.06-1.9-.09-2.86,0-.16,0-.32.05-.48.26-.9.83-1.24,1.74-1.02.11.03.22.07.33.1.23.05.4.18.49.4.11.27.27.44.59.42.1,0,.21.03.3.07.49.16.84.46,1.03.96.24.61.62,1.14,1.02,1.65.3.37.65.33.89-.09.24-.43.4-.89.59-1.34.24-.58.48-1.16.73-1.73.22-.51.55-.7,1.1-.63.3.04.6.09.89.17.37.1.59.34.62.71.07.71.29,1.38.5,2.06.01.04.02.09.04.13.05.14.13.27.28.28.15,0,.23-.13.29-.26.24-.59.48-1.18.68-1.79.19-.57.36-1.15.54-1.73.03-.09.05-.18.08-.27.19-.48.7-.69,1.14-.42.54.32.88.79.81,1.46-.03.28-.07.55-.1.83-.05.39-.12.78-.13,1.17-.01.78-.3,1.48-.74,2.1-.26.37-.41.77-.5,1.21-.1.46-.22.92-.36,1.38-.11.36-.23.42-.59.38-.07,0-.13,0-.17-.08-.01-.03-.05-.04-.08-.06-.6-.4-.66-.43-1.15,0-.11.1-.24.19-.41.11-.15-.07-.16-.21-.17-.36-.01-.38-.13-.73-.29-1.07-.2-.43-.44-.84-.63-1.28-.07-.17-.17-.36-.39-.36-.2,0-.28.19-.36.34-.2.39-.36.8-.5,1.22-.07.2-.14.4-.24.58-.14.24-.34.4-.62.4-.19,0-.24.09-.26.24-.08.48-.34.66-.87.66-.3,0-.54-.12-.68-.4-.11-.21-.2-.42-.27-.64-.22-.7-.65-1.28-1.1-1.84-.03-.04-.06-.07-.1-.1-.31-.3-.59-.27-.84.09-.34.49-.47,1.04-.47,1.64,0,1.41,0,2.81-.02,4.22,0,.16,0,.33,0,.49Z"/>
    <path class="cls-1" d="M74.44,48.42c-.22,0-.53-.05-.82-.18-.42-.19-.83-.15-1.26-.03-.44.12-.85.32-1.27.47-.58.21-1.07.09-1.5-.34-.06-.07-.12-.14-.17-.22-.17-.29-.1-.56.17-.76.16-.12.35-.18.54-.23.62-.16,1.24-.32,1.85-.48.45-.12.89-.27,1.3-.5.3-.17.63-.2.94-.11.74.2,1.35.61,1.8,1.24.09.13.1.23,0,.36-.38.48-.84.79-1.58.79Z"/>
    <path class="cls-1" d="M55.8,42.82c-.74-.1-1.48-.39-2.13-.89-.18-.14-.36-.29-.5-.49-.32-.45-.31-.95.09-1.32.71-.65,1.53-1.08,2.53-1.09.5,0,.73.16.86.64.1.39.17.79.24,1.19.01.07.02.14,0,.21-.1.44-.19.88-.36,1.3-.13.33-.33.45-.74.44ZM55.96,41.39c0-.08-.01-.16-.03-.24-.06-.48-.25-.64-.73-.59-.08,0-.17.01-.22.09-.18.26-.25.56-.16.85.08.26.34.33.58.37.37.05.55-.1.55-.47Z"/>
    <path class="cls-1" d="M68.48,33.75c.01-.58-.12-1.1-.51-1.55-.18-.21-.16-.33.02-.55.33-.39.77-.56,1.25-.61.61-.07,1.2.07,1.77.26.32.11.48.37.46.71-.07,1.08-.48,2-1.32,2.7-.44.36-1.07.26-1.45-.05-.14-.12-.22-.27-.23-.45,0-.15,0-.3,0-.45ZM69.79,33.89c.08,0,.16-.01.24-.03.31-.08.53-.49.37-.74-.21-.32-.51-.55-.9-.6-.41-.06-.64.25-.5.64.07.19.16.36.29.51.13.15.29.23.49.22Z"/>
    <path class="cls-1" d="M64.84,35.23c.02-.61-.11-1.12-.45-1.56-.19-.25-.17-.45.04-.68.28-.31.64-.44,1.05-.49.57-.06,1.12-.01,1.67.14.56.15.76.45.68,1.03-.13.91-.48,1.71-1.17,2.34-.41.37-.89.45-1.34.21-.35-.18-.52-.45-.48-.84,0-.07,0-.14.01-.14ZM66.14,35.29c.09-.01.19,0,.27-.03.31-.08.51-.49.35-.74-.2-.31-.49-.52-.86-.59-.29-.05-.54.12-.58.37-.06.37.25,1.03.82.99Z"/>
    <path class="cls-1" d="M66.36,28.23c.66-.07,1.23.27,1.81.54.4.19.44.61.13.92-.41.41-.6.91-.64,1.47-.03.43-.18.76-.62.91-.46.15-.86.09-1.21-.28-.44-.46-.66-1.03-.8-1.64-.07-.31-.11-.62-.11-.93,0-.52.44-.97.96-.99.15,0,.3,0,.48,0ZM66.36,31.09c.42,0,.79-.3.89-.7.11-.44-.21-.76-.65-.64-.22.06-.4.18-.58.3-.27.19-.34.35-.27.58.09.3.31.46.61.46Z"/>
    <path class="cls-1" d="M77.97,48.28c.01-.59-.12-1.09-.46-1.53-.19-.25-.15-.41.08-.63.33-.32.72-.49,1.19-.47.44.02.88.02,1.32.07.65.07.99.6.76,1.23-.22.61-.49,1.2-.82,1.76-.05.09-.12.17-.18.25-.46.57-1.15.46-1.54.23-.21-.13-.33-.32-.35-.57-.01-.13,0-.25,0-.35ZM79.28,48.42c.4,0,.74-.43.58-.75-.17-.34-.46-.56-.83-.64-.33-.07-.63.18-.57.47.06.33.23.6.49.82.09.08.21.1.33.11Z"/>
  </g>
  <g>
    <path class="cls-3" d="M50.89,62.02s-.16.02-.2.03c-10.31,1.33-21.41.01-30.02-5.5-3.34-2.14-7.22-5.71-8.11-10.78-.71-4.07,1.14-7.73,3.6-10.39.84-.91,1.56-1.39,2.38-2.18-3.31,2.1-7.88,6.49-8.09,12.1-.21,5.49,3.69,9.78,7.85,12.3,4.14,2.51,9.15,4.34,15.12,5.1,4.74.6,9.35.65,14.2.06.8-.1,1.44-.21,2.2-.32l1.3-.24c.25-.06.54-.11.74-.28l-.97.13ZM50.89,62.02"/>
    <path class="cls-3" d="M40.79,26.17l-.02.36c3.74.2,3.93-.03,8.16.52,8.24,1.08,18.72,5.29,22.51,12.59,3.32,6.39.19,12.65-5.07,16.47-.41.3-.91.52-1.22.93,3.53-1.91,7.62-5.74,8.97-9.64,2.08-6.01-.8-10.67-3.9-13.38-3.14-2.75-7.24-4.96-12.43-6.33-4.8-1.27-11.5-2.11-17-1.52h0ZM40.79,26.17"/>
    <path class="cls-4" d="M37.28,44.73l2.12.27c-.5,1.23-1.04,2.22-.91,3.91.11,1.41.98,2.42,2.29,2.65,2.74.47,5.13-1.61,5.94-4.06-.12-.1-1.92-1.09-1.98-1.12-.34.39-.69,1.45-1.36,2.07-2.1,1.98-4.51-.34-.22-3.95-.4-.77-.86-1.28-1.04-2.45-1.84.19-3.52.63-5.7-.5-.53-.27-.96-.66-1.47-.84-.37.51-1.23,1.39-1.45,1.92,1.23,1.83,2.59,4.49.58,6.45-2.59,2.54-10.78,2.44-10.56-4.8.08-2.58,1.43-5.23,2.62-6.51-.16-.22-1.51-1.38-1.83-1.55-1.69,1.72-3.12,4.68-3.23,8.07-.1,2.98,1.05,6.2,3.54,7.75,3.79,2.36,9.83,1.43,12.02-2.27.92-1.55.71-3.12.65-5.04h0ZM37.28,44.73"/>
    <path class="cls-4" d="M53.51,45.49c1.35,1.75.58,2.16,4.3-1.59.67-.67,2.11-2.28,3.7-2.3,2.09-.03,1.58,2.41.74,3.65-.49.71-2.1,3.14-3.43,1.95-.15-.9.68-1.23-.15-1.94-.79-.67-1.44-.11-1.79.47-.9,1.46-.33,3.36.73,4.01,1.56.97,2.99.07,4.12-.71,6.58-4.57,3.33-13.83-3.92-8.33-.63.48-1.07.78-1.58,1.28-.25.25-1.22,1.27-1.44,1.36-.59-.75-1.08-2.09-1.47-3.08l-.46-1s-.03-.05-.05-.07l-1.76.82s-.12.08-.15.09l-.14.12c.27,1.25,2.25,3.67-.26,4.43-2.34.7-5.53-1.14-5.51-4.32,0-.97.34-2.15,1.12-2.29,2.65-.47.56,4.5.53,4.73.54.39,1.06.94,1.94,1.13.55-1.83,2.56-5.12-.04-7.47-1.88-1.71-4.98-.86-5.67,2.79-1.07,5.59,4.68,9.38,9.06,7.3.58-.28,1.16-.88,1.6-1.02h0ZM53.51,45.49"/>
    <path class="cls-4" d="M51.39,50.2c-.49-.88-1.11-1.86-2.58-1.65-1.04.15-1.92,1.15-1.91,2.36.03,2.62,3.51,3.33,4.46.66.26.36.77,1.92,2.59,1.63,1.09-.17,1.92-1.19,1.91-2.4-.04-2.53-3.55-3.33-4.47-.61h0ZM51.39,50.2"/>
    <path class="cls-4" d="M28.9,38.36c-.71.32-.87.28-1.24,1.02-.98,1.96.75,4.17,2.82,3.37,2.81-1.09,1.07-5.6-1.58-4.39h0ZM28.9,38.36"/>
    <g>
      <path class="cls-2" d="M57.08,50.9c-.11,1.64-.81,2.57-1.85,3.12-1.79.93-2.57.23-3.88-.32-1.65,1.38-5.01,1.11-5.65-2.43-1.29.8-2.26,1.59-4.28,1.56-1.98-.03-3.18-1-3.72-2.28-.24.15-.03-.02-.22.17l-.49.62c-2.51,3.06-7.97,4.15-11.75,2.41-1.51-.7-2.34-1.51-3.26-2.48-1.98-2.08-2.43-6.19-1.87-9.17.4-2.19,1.37-4.34,2.65-5.97.52-.65.95-1.03,1.38-1.57.48.17,1.18.96,1.86,1.44.33.23.52.42.83.71.39.37.54.46.9.72,1.33-.55,2.45-.9,3.83.05.52.35.86.66,1.22,1.32.36.65.31.89.4,1.43.02.11.03.2.07.31.12.31-.05.05.17.3.36-.69.96-1.13,1.31-1.8.86.18,1.22,1.16,2.83,1.71,1.19.41,2.78.5,3.94.12.1-7.52,6.64-8,8.84-4.08.46.82.39.92.69,1.83.7-.29,1.75-.96,2.48-1.11.17.6,1.25,3.37,1.59,3.82.78-.39,3.1-3.18,6.11-3.48,5.57-.54,7.25,6.37,2.63,10.99-.71.72-1.67,1.49-2.83,2.03-1.74.81-2.31.54-3.94.03h0ZM31.35,32.83c-2.58-1.39-2.36-1.97-3.4-2.97-4.68,1.57-9.52,4.47-12.36,8.37-1.41,1.94-2.49,5.03-1.7,8.09,1.27,4.94,5.89,8.4,10.14,10.62,7.71,4.04,17.31,5.27,26.07,3.97,5.77-.86,11.17-2.8,15.13-5.6.59-.42,1.03-.64,1.55-1.1,3.57-3.17,6.35-7.15,4.33-12.34-1.17-3.02-3.41-5.3-5.81-7.22-5.21-4.14-14.17-6.99-21.13-7.16h-3.57c-.17,2.02-1.37,4.39-2.36,6.02-.37.61-.8,1.16-1.07,1.68-1.46-.15-4.67-1.74-5.82-2.36h0ZM31.35,32.83"/>
      <path class="cls-2" d="M34.16,24.4c.83.22,1.78.95.62,1.58-1.44.07-2.43-1.59-4.61-.45-2.54,1.32-1.39,4.7,2.27,6.64,1.07.57,3.13,1.46,4.45,1.52l1.37-2.83c.4-1,.81-2.15,1.01-3.28,1.31-7.75-5.28-5.09-5.11-3.18h0ZM34.16,24.4"/>
    </g>
    <path class="cls-2" d="M32.34,43.09c-.63.18-1.92,1.84-4.24.72-1.31-.63-1.99-1.83-1.99-3.75-.17.16-.03,0-.19.21-.06.08-.13.2-.18.29-.09.18-.19.38-.28.6-.58,1.36-.89,2.89-.65,4.42.31,1.99,1.43,3.21,3.31,3.64,2.1.48,4.24,0,5.28-1.23,1.32-1.56-.38-3.79-1.06-4.89h0ZM32.34,43.09"/>
    <path class="cls-2" d="M59.27,44.04c.07.17.44.52.94,1.42.13.23.04.14.22.3.21-.37,1.53-1.98,1.33-2.64-.31-1.06-2.26.78-2.5.92h0ZM59.27,44.04"/>
  </g>
</svg>